Coordinates
version=1
nRows=35
nColumns=18
inDegrees=yes

Units are S.I. units (second, meters, Newtons, ...)
If the header above contains a line with 'inDegrees', this indicates whether rotational values are in degrees (yes) or radians (no).

endheader
time	TH_x	TH_y	TH_z	TH_transx	TH_transy	TH_transz	SC_y	SC_z	SC_x	AC_y	AC_z	AC_x	GH_y	GH_z	GH_yy	EL_x	PS_y
  13268.00000000	      3.85538981	     83.74155655	    -17.77064867	     -0.07434467	      0.19985473	      1.46453967	    -46.88508929	     18.15009161	      8.23385348	     55.34012084	     19.92471802	    -17.00000001	     28.66503087	    -15.77948697	      1.04978356	     56.24811245	    160.02711218
  13301.00000000	      0.56733834	     84.85782053	    -16.01635009	     -0.07824974	      0.19881551	      1.46138918	    -48.23325615	     18.64402728	      4.83129813	     53.21608806	     19.99999998	    -17.00000001	     32.52226440	    -13.05775928	     -3.72393839	     54.36877065	    160.02711218
  13335.00000000	     -0.05262445	     85.02371765	    -14.41228969	     -0.07770069	      0.19976056	      1.46520158	    -46.72558813	     17.81567064	      0.72660350	     52.15085490	     19.97340351	    -16.98675601	     36.61676978	    -12.12298872	     -8.20037205	     54.15656496	    160.02711218
  13368.00000000	     -0.49892740	     86.81202892	    -14.40062958	     -0.07725808	      0.20166158	      1.46876326	    -46.87867719	     18.47114298	     -0.05729578	     50.53310287	     19.99999998	    -17.00000001	     35.65290984	    -14.01396972	    -10.33090446	     52.27992228	    160.02711218
  13401.00000000	     -1.36900991	     90.25524049	    -13.79423034	     -0.07938600	      0.20313527	      1.47668584	    -47.28948619	     17.00979800	      0.01098141	     51.06612468	     19.99912888	    -16.96545749	     49.03684172	    -18.81351086	    -26.77237963	     53.08958570	    160.02711218
  13435.00000000	     -1.65682468	     90.82977634	    -14.10990493	     -0.07700918	      0.20145274	      1.47897440	    -46.98489363	     17.26752427	     -0.05729578	     50.31320118	     19.99999998	    -17.00000001	     48.98099869	    -20.29014482	    -27.22815775	     53.60025409	    160.02711218
  13468.00000000	     -1.87267964	     89.98930911	    -14.19790767	     -0.07797932	      0.20157656	      1.47566822	    -47.07877883	     16.20611533	      0.02254561	     51.72685811	     19.99999998	    -17.00000001	     56.32185945	    -23.29153735	    -35.83306439	     58.32939409	    160.02711218
  13501.00000000	     -1.90960662	     89.55364688	    -14.22946039	     -0.07584696	      0.20256780	      1.47625958	    -46.00566365	     16.07570265	     -0.02684557	     50.70055803	     19.29916848	    -17.00000001	     56.62928608	    -24.57278018	    -35.30693634	     57.93260276	    160.02711218
  13535.00000000	     -1.86507321	     89.35504173	    -14.10407192	     -0.07627485	      0.20353543	      1.47761412	    -45.75437491	     15.72215467	     -0.01971726	     50.13093404	     19.83783898	    -17.00000001	     57.51856827	    -26.18576168	    -35.22002028	     56.34662751	    160.02711218
  13568.00000000	     -1.71660415	     89.74968111	    -13.79741260	     -0.07639145	      0.20339360	      1.48087702	    -45.81894304	     14.99155881	      0.63912892	     50.37417862	     19.99999998	    -17.00000001	     60.20124310	    -29.19059728	    -37.70755123	     56.83990151	    160.02711218
  13601.00000000	     -1.33487528	     90.04374287	    -13.40247463	     -0.07520823	      0.20428741	      1.48412694	    -45.04393108	     15.82310728	      0.11986963	     49.38524078	     18.79517392	    -16.34972581	     60.13621422	    -29.83200007	    -37.26609066	     53.92264976	    160.02711218
  13635.00000000	     -1.34218195	     90.02663406	    -13.40979541	     -0.07513110	      0.20423205	      1.48399847	    -45.06227926	     15.82975645	      0.09310225	     49.37934554	     18.78307192	    -16.37858269	     60.14390613	    -29.85838264	    -37.26074315	     53.91108293	    160.02711218
  13668.00000000	     -1.12254141	     89.51174500	    -13.19338568	     -0.07236408	      0.20387239	      1.48233152	    -45.33043949	     15.70326646	      0.02599443	     48.85366405	     18.40687282	    -16.14114343	     59.72332647	    -30.00007015	    -37.33117166	     54.67553486	    160.02711218
  13701.00000000	     -1.12368134	     89.50954488	    -13.19454473	     -0.07231923	      0.20384706	      1.48234277	    -45.33114519	     15.70201031	      0.02461297	     48.85243303	     18.40611650	    -16.14309488	     59.72306193	    -30.00007015	    -37.33135334	     54.67517247	    160.02711218
  13735.00000000	     -1.16898680	     85.59297975	    -13.36537642	     -0.07409921	      0.20322208	      1.47208365	    -45.76944414	     15.97077062	      0.73554201	     48.20904750	     19.74213778	    -16.97710949	     59.76383303	    -29.01015764	    -37.49489600	     56.83843109	    160.02711218
  13768.00000000	     -1.26270270	     85.47703317	    -13.45441811	     -0.07445324	      0.20321933	      1.47053366	    -45.65782883	     16.09955078	      0.68167699	     47.77775106	     19.66497563	    -17.00000001	     59.47849278	    -29.28440956	    -37.68097751	     57.17888908	    160.02711218
  13801.00000000	     -1.01990492	     85.11864156	    -13.24698348	     -0.07219366	      0.20291457	      1.46980626	    -46.01642482	     15.95608317	      0.74946723	     47.65414972	     19.61245183	    -16.87241927	     59.31193605	    -29.19660249	    -37.75051461	     57.20356438	    160.02711218
  13835.00000000	     -1.09941160	     84.62606679	    -13.37949292	     -0.07340771	      0.20218271	      1.46857401	    -46.01626104	     16.18890735	      0.85318069	     47.57237807	     19.81855801	    -16.95873572	     59.31493454	    -29.08816342	    -37.78806615	     57.26136438	    160.02711218
  13868.00000000	     -1.09825648	     84.62708419	    -13.37877258	     -0.07351048	      0.20215985	      1.46852911	    -46.01401666	     16.18754146	      0.85514827	     47.57256435	     19.81851651	    -16.95570459	     59.31440186	    -29.08600011	    -37.78763961	     57.26254918	    160.02711218
  13901.00000000	     -0.78650562	     83.96576854	    -13.31888073	     -0.07249459	      0.20246547	      1.46880778	    -45.37812749	     16.22665873	      0.75120682	     47.59630022	     19.40030942	    -16.54215181	     59.65262839	    -28.92937069	    -37.10573217	     56.70989377	    160.02711218
  13935.00000000	     -1.06497406	     84.21765915	    -13.34022282	     -0.07312310	      0.20411034	      1.46796431	    -45.79278434	     15.94780792	      0.79291073	     47.92469599	     19.58546449	    -16.68014463	     59.86076590	    -28.69866606	    -37.05917569	     57.76848434	    160.02711218
  13968.00000000	     -1.48428490	     85.20181238	    -13.28120218	     -0.07434463	      0.20283387	      1.46740169	    -46.60585910	     15.81195185	      0.62460531	     48.75683617	     19.71931875	    -16.72234754	     60.42725075	    -28.45464783	    -36.81625166	     56.60343489	    160.02711218
  14001.00000000	     -1.50958305	     85.39572545	    -13.24462200	     -0.07443728	      0.20275893	      1.46766949	    -46.52304384	     15.93786036	      0.55559884	     48.76783748	     19.71608814	    -16.80206840	     60.48515003	    -28.53861530	    -36.78702752	     56.68083574	    160.02711218
  14035.00000000	     -2.38520919	     86.29766968	    -12.30575521	     -0.07436093	      0.20242132	      1.46856746	    -46.75750149	     15.64117368	      0.19112374	     49.68488257	     19.99999998	    -17.00000001	     62.86176722	    -29.68760948	    -38.25464545	     61.18342753	    160.02711218
  14068.00000000	     -2.34042419	     86.34238312	    -12.25428661	     -0.07442668	      0.20262221	      1.46873952	    -46.69499415	     15.70474857	      0.22854197	     49.70793792	     19.99999998	    -17.00000001	     62.88101787	    -29.66126674	    -38.26908471	     61.17554636	    160.02711218
  14101.00000000	     -3.18910733	     87.24694604	    -11.79313356	     -0.07111976	      0.20333568	      1.46971513	    -46.38199924	     15.27859940	      0.48603112	     50.31157998	     19.99999998	    -17.00000001	     64.62160272	    -29.94897096	    -39.25087899	     62.37238201	    160.02711218
  14135.00000000	     -3.18852161	     87.24782411	    -11.79234294	     -0.07115533	      0.20335056	      1.46966949	    -46.38097066	     15.27934156	      0.48693637	     50.31170615	     19.99999998	    -16.99996679	     64.62172837	    -29.94819733	    -39.25113660	     62.37246395	    160.02711218
  14168.00000000	     -4.38380117	     91.12847736	    -10.91586417	     -0.07362060	      0.20129531	      1.47785680	    -47.98128332	     15.32410890	     -0.05729578	     45.77778872	     19.33645464	    -17.00000001	     74.85942915	    -29.99821708	    -46.72247150	     67.70879373	    160.02711218
  14201.00000000	     -4.40684279	     91.08522886	    -11.00013726	     -0.07385523	      0.20010144	      1.47752100	    -47.94246846	     15.61599288	     -0.05729578	     45.50899080	     19.11531612	    -17.00000001	     75.03537684	    -30.00007015	    -46.45478409	     68.77558617	    160.02711218
  14235.00000000	     93.08058886	     93.79357737	   -109.25176753	     -0.07420911	      0.18815143	      1.46944150	    -48.00378083	     15.42492100	     -0.05729578	     46.98711877	     19.99999998	    -17.00000001	     90.01166962	    -30.00007015	    -53.58619408	     86.02147347	    160.02711218
  14268.00000000	     93.23254705	     93.68538605	   -109.18012868	     -0.07219982	      0.18730223	      1.46792528	    -48.46555797	     16.07841109	     -0.05729578	     47.92841108	     19.99999998	    -17.00000001	     90.01166962	    -30.00007015	    -52.09177197	     88.83955595	    159.93367491
  14301.00000000	     93.59352703	     94.47635736	   -109.22292665	     -0.07243569	      0.18285521	      1.46617944	    -48.76906730	     17.27464911	     -0.05729578	     48.99185807	     19.99999998	    -17.00000001	     90.01166962	    -30.00007015	    -51.89799139	     91.87384340	    159.90677213
  14335.00000000	     94.50401612	     94.38548688	   -109.88723690	     -0.06829314	      0.18032452	      1.46338637	    -49.90106719	     19.55038108	     -0.05729578	     50.32632603	     19.99999998	    -17.00000001	     90.01166962	    -30.00007015	    -52.81859348	     97.38353985	    159.75032697
  14368.00000000	    147.55280251	    101.19406342	   -160.98122235	     -0.06870196	      0.17578818	      1.44490686	    -44.89154727	     18.88884136	     -0.05729578	     53.77035285	     19.99999998	    -17.00000001	     90.01166962	    -30.00007015	    -51.58783686	    100.26173433	    160.02711218
  14401.00000000	    147.56102174	    103.27119514	   -160.43649391	     -0.07102100	      0.17527346	      1.44035546	    -44.30177374	     19.33587139	     -0.05729578	     55.09747682	     19.99999998	    -17.00000001	     90.01166962	    -30.00007015	    -53.87647939	    102.27691676	    160.02711218
